{
    "accessors": {
        "accessor_21": {
            "bufferView": "bufferView_29",
            "byteOffset": 0,
            "byteStride": 0,
            "componentType": 5123,
            "count": 5796,
            "type": "SCALAR"
        },
        "accessor_23": {
            "bufferView": "bufferView_30",
            "byteOffset": 0,
            "byteStride": 12,
            "componentType": 5126,
            "count": 5796,
            "max": [
                0.201796,
                0.185617,
                0.190311
            ],
            "min": [
                -0.201798,
                -0.167215,
                -0.170542
            ],
            "type": "VEC3"
        },
        "accessor_25": {
            "bufferView": "bufferView_30",
            "byteOffset": 69552,
            "byteStride": 12,
            "componentType": 5126,
            "count": 5796,
            "max": [
                1,
                1,
                1
            ],
            "min": [
                -1,
                -1,
                -1
            ],
            "type": "VEC3"
        },
        "accessor_27": {
            "bufferView": "bufferView_30",
            "byteOffset": 139104,
            "byteStride": 8,
            "componentType": 5126,
            "count": 5796,
            "max": [
                0.721338,
                0.998166
            ],
            "min": [
                0.000154989,
                0.000155091
            ],
            "type": "VEC2"
        }
    },
    "animations": {},
    "asset": {
        "generator": "collada2gltf@cf6371beb0bdc18ba603378d5e40c966da53d385",
        "premultipliedAlpha": true,
        "profile": {
            "api": "WebGL",
            "version": "1.0.2"
        },
        "version": "1.0"
    },
    "bufferViews": {
        "bufferView_29": {
            "buffer": "avatar3-head",
            "byteLength": 11592,
            "byteOffset": 0,
            "target": 34963
        },
        "bufferView_30": {
            "buffer": "avatar3-head",
            "byteLength": 185472,
            "byteOffset": 11592,
            "target": 34962
        }
    },
    "buffers": {
        "avatar3-head": {
            "byteLength": 197064,
            "type": "arraybuffer",
            "uri": "avatar3-head.bin"
        }
    },
    "extensionsUsed": [
        "KHR_materials_common"
    ],
    "images": {
        "avatar3": {
            "name": "avatar3",
            "uri": "avatar3.jpg"
        },
        "avatar3spec": {
            "name": "avatar3spec",
            "uri": "avatar3spec.jpg"
        }
    },
    "materials": {
        "matfinal-effect": {
            "extensions": {
                "KHR_materials_common": {
                    "doubleSided": false,
                    "jointCount": 0,
                    "technique": "PHONG",
                    "transparent": false,
                    "values": {
                        "ambient": [
                            0,
                            0,
                            0,
                            1
                        ],
                        "diffuse": "texture_avatar3",
                        "emission": [
                            0,
                            0,
                            0,
                            1
                        ],
                        "shininess": 59,
                        "specular": "texture_avatar3spec"
                    }
                }
            },
            "name": "matfinal"
        }
    },
    "meshes": {
        "head-mesh": {
            "name": "head",
            "primitives": [
                {
                    "attributes": {
                        "NORMAL": "accessor_25",
                        "POSITION": "accessor_23",
                        "TEXCOORD_0": "accessor_27"
                    },
                    "indices": "accessor_21",
                    "material": "matfinal-effect",
                    "mode": 4
                }
            ]
        }
    },
    "nodes": {
        "head": {
            "children": [],
            "matrix": [
                1,
                0,
                0,
                0,
                0,
                1,
                0,
                0,
                0,
                0,
                1,
                0,
                0,
                0,
                0,
                1
            ],
            "meshes": [
                "head-mesh"
            ],
            "name": "head"
        },
        "node_1": {
            "children": [
                "head"
            ],
            "matrix": [
                1,
                0,
                0,
                0,
                0,
                0,
                -1,
                0,
                0,
                1,
                0,
                0,
                0,
                0,
                0,
                1
            ],
            "name": "Y_UP_Transform"
        }
    },
    "samplers": {
        "sampler_0": {
            "magFilter": 9729,
            "minFilter": 9729,
            "wrapS": 10497,
            "wrapT": 10497
        }
    },
    "scene": "defaultScene",
    "scenes": {
        "defaultScene": {
            "nodes": [
                "node_1"
            ]
        }
    },
    "skins": {},
    "textures": {
        "texture_avatar3": {
            "format": 6408,
            "internalFormat": 6408,
            "sampler": "sampler_0",
            "source": "avatar3",
            "target": 3553,
            "type": 5121
        },
        "texture_avatar3spec": {
            "format": 6408,
            "internalFormat": 6408,
            "sampler": "sampler_0",
            "source": "avatar3spec",
            "target": 3553,
            "type": 5121
        }
    }
}