{
    "accessors": {
        "accessor_21": {
            "bufferView": "bufferView_29",
            "byteOffset": 0,
            "byteStride": 0,
            "componentType": 5123,
            "count": 120,
            "type": "SCALAR"
        },
        "accessor_23": {
            "bufferView": "bufferView_30",
            "byteOffset": 0,
            "byteStride": 12,
            "componentType": 5126,
            "count": 120,
            "max": [
                1,
                2.91199,
                13.4671
            ],
            "min": [
                -1,
                -4.12119,
                -0.893228
            ],
            "type": "VEC3"
        },
        "accessor_25": {
            "bufferView": "bufferView_30",
            "byteOffset": 1440,
            "byteStride": 12,
            "componentType": 5126,
            "count": 120,
            "max": [
                1,
                0.329988,
                0.997436
            ],
            "min": [
                -1,
                -0.329988,
                -0.997436
            ],
            "type": "VEC3"
        },
        "accessor_27": {
            "bufferView": "bufferView_30",
            "byteOffset": 2880,
            "byteStride": 8,
            "componentType": 5126,
            "count": 120,
            "max": [
                0.979456,
                0.98562
            ],
            "min": [
                0.0154468,
                0.0143801
            ],
            "type": "VEC2"
        }
    },
    "animations": {},
    "asset": {
        "generator": "collada2gltf@cf6371beb0bdc18ba603378d5e40c966da53d385",
        "premultipliedAlpha": true,
        "profile": {
            "api": "WebGL",
            "version": "1.0.2"
        },
        "version": "1.0"
    },
    "bufferViews": {
        "bufferView_29": {
            "buffer": "tv",
            "byteLength": 240,
            "byteOffset": 0,
            "target": 34963
        },
        "bufferView_30": {
            "buffer": "tv",
            "byteLength": 3840,
            "byteOffset": 240,
            "target": 34962
        }
    },
    "buffers": {
        "tv": {
            "byteLength": 4080,
            "type": "arraybuffer",
            "uri": "tv.bin"
        }
    },
    "extensionsUsed": [
        "KHR_materials_common"
    ],
    "images": {
        "tv_png": {
            "name": "tv_png",
            "uri": "tv.png"
        }
    },
    "materials": {
        "tvmat-effect": {
            "extensions": {
                "KHR_materials_common": {
                    "technique": "CONSTANT",
                    "values": {
                        "emission": "texture_tv_png"
                    }
                }
            },
            "name": "tvmat"
        }
    },
    "meshes": {
        "tv-mesh": {
            "name": "tv",
            "primitives": [
                {
                    "attributes": {
                        "NORMAL": "accessor_25",
                        "POSITION": "accessor_23",
                        "TEXCOORD_0": "accessor_27"
                    },
                    "indices": "accessor_21",
                    "material": "tvmat-effect",
                    "mode": 4
                }
            ]
        }
    },
    "nodes": {
        "node_1": {
            "children": [
                "tv"
            ],
            "matrix": [
                1,
                0,
                0,
                0,
                0,
                0,
                -1,
                0,
                0,
                1,
                0,
                0,
                0,
                0,
                0,
                1
            ],
            "name": "Y_UP_Transform"
        },
        "tv": {
            "children": [],
            "matrix": [
                0.275,
                0,
                0,
                0,
                0,
                0.0277154,
                0,
                0,
                0,
                0,
                0.175,
                0,
                0,
                0,
                0,
                1
            ],
            "meshes": [
                "tv-mesh"
            ],
            "name": "tv"
        }
    },
    "samplers": {
        "sampler_0": {
            "magFilter": 9729,
            "minFilter": 9729,
            "wrapS": 10497,
            "wrapT": 10497
        }
    },
    "scene": "defaultScene",
    "scenes": {
        "defaultScene": {
            "nodes": [
                "node_1"
            ]
        }
    },
    "skins": {},
    "textures": {
        "texture_tv_png": {
            "format": 6408,
            "internalFormat": 6408,
            "sampler": "sampler_0",
            "source": "tv_png",
            "target": 3553,
            "type": 5121
        }
    }
}
