{
    "accessors": {
        "accessor_21": {
            "bufferView": "bufferView_29",
            "byteOffset": 0,
            "byteStride": 0,
            "componentType": 5123,
            "count": 3228,
            "type": "SCALAR"
        },
        "accessor_23": {
            "bufferView": "bufferView_30",
            "byteOffset": 0,
            "byteStride": 12,
            "componentType": 5126,
            "count": 3228,
            "max": [
                0.0442203,
                0.193637,
                0.06444
            ],
            "min": [
                -0.0539793,
                -0.184593,
                -0.156444
            ],
            "type": "VEC3"
        },
        "accessor_25": {
            "bufferView": "bufferView_30",
            "byteOffset": 38736,
            "byteStride": 12,
            "componentType": 5126,
            "count": 3228,
            "max": [
                0.999696,
                0.996825,
                0.999667
            ],
            "min": [
                -0.999741,
                -0.993751,
                -0.999945
            ],
            "type": "VEC3"
        },
        "accessor_27": {
            "bufferView": "bufferView_30",
            "byteOffset": 77472,
            "byteStride": 8,
            "componentType": 5126,
            "count": 3228,
            "max": [
                0.971472,
                0.991168
            ],
            "min": [
                0.0101938,
                0.0550797
            ],
            "type": "VEC2"
        }
    },
    "animations": {},
    "asset": {
        "generator": "collada2gltf@cf6371beb0bdc18ba603378d5e40c966da53d385",
        "premultipliedAlpha": true,
        "profile": {
            "api": "WebGL",
            "version": "1.0.2"
        },
        "version": "1.0"
    },
    "bufferViews": {
        "bufferView_29": {
            "buffer": "avatar2-hand-right",
            "byteLength": 6456,
            "byteOffset": 0,
            "target": 34963
        },
        "bufferView_30": {
            "buffer": "avatar2-hand-right",
            "byteLength": 103296,
            "byteOffset": 6456,
            "target": 34962
        }
    },
    "buffers": {
        "avatar2-hand-right": {
            "byteLength": 109752,
            "type": "arraybuffer",
            "uri": "avatar2-hand-right.bin"
        }
    },
    "extensionsUsed": [
        "KHR_materials_common"
    ],
    "images": {
        "avatar2": {
            "name": "avatar2",
            "uri": "avatar2.jpg"
        },
        "avatar2spec": {
            "name": "avatar2spec",
            "uri": "avatar2spec.jpg"
        }
    },
    "materials": {
        "matfinal-effect": {
            "extensions": {
                "KHR_materials_common": {
                    "doubleSided": false,
                    "jointCount": 0,
                    "technique": "PHONG",
                    "transparent": false,
                    "values": {
                        "ambient": [
                            0,
                            0,
                            0,
                            1
                        ],
                        "diffuse": "texture_avatar2",
                        "emission": [
                            0,
                            0,
                            0,
                            1
                        ],
                        "shininess": 56,
                        "specular": "texture_avatar2spec"
                    }
                }
            },
            "name": "matfinal"
        }
    },
    "meshes": {
        "hand-mesh": {
            "name": "hand",
            "primitives": [
                {
                    "attributes": {
                        "NORMAL": "accessor_25",
                        "POSITION": "accessor_23",
                        "TEXCOORD_0": "accessor_27"
                    },
                    "indices": "accessor_21",
                    "material": "matfinal-effect",
                    "mode": 4
                }
            ]
        }
    },
    "nodes": {
        "hand-right": {
            "children": [],
            "matrix": [
                1,
                0,
                0,
                0,
                0,
                1,
                0,
                0,
                0,
                0,
                1,
                0,
                0,
                0,
                0,
                1
            ],
            "meshes": [
                "hand-mesh"
            ],
            "name": "hand-right"
        },
        "node_1": {
            "children": [
                "hand-right"
            ],
            "matrix": [
                1,
                0,
                0,
                0,
                0,
                0,
                -1,
                0,
                0,
                1,
                0,
                0,
                0,
                0,
                0,
                1
            ],
            "name": "Y_UP_Transform"
        }
    },
    "samplers": {
        "sampler_0": {
            "magFilter": 9729,
            "minFilter": 9729,
            "wrapS": 10497,
            "wrapT": 10497
        }
    },
    "scene": "defaultScene",
    "scenes": {
        "defaultScene": {
            "nodes": [
                "node_1"
            ]
        }
    },
    "skins": {},
    "textures": {
        "texture_avatar2": {
            "format": 6408,
            "internalFormat": 6408,
            "sampler": "sampler_0",
            "source": "avatar2",
            "target": 3553,
            "type": 5121
        },
        "texture_avatar2spec": {
            "format": 6408,
            "internalFormat": 6408,
            "sampler": "sampler_0",
            "source": "avatar2spec",
            "target": 3553,
            "type": 5121
        }
    }
}