{
    "accessors": {
        "accessor_21": {
            "bufferView": "bufferView_29",
            "byteOffset": 0,
            "byteStride": 0,
            "componentType": 5123,
            "count": 4566,
            "type": "SCALAR"
        },
        "accessor_23": {
            "bufferView": "bufferView_30",
            "byteOffset": 0,
            "byteStride": 12,
            "componentType": 5126,
            "count": 4566,
            "max": [
                0.148281,
                0.288086,
                0.266199
            ],
            "min": [
                -0.148281,
                -0.174274,
                -0.195902
            ],
            "type": "VEC3"
        },
        "accessor_25": {
            "bufferView": "bufferView_30",
            "byteOffset": 54792,
            "byteStride": 12,
            "componentType": 5126,
            "count": 4566,
            "max": [
                0.99989,
                0.999985,
                0.999445
            ],
            "min": [
                -0.99989,
                -1,
                -0.999956
            ],
            "type": "VEC3"
        },
        "accessor_27": {
            "bufferView": "bufferView_30",
            "byteOffset": 109584,
            "byteStride": 8,
            "componentType": 5126,
            "count": 4566,
            "max": [
                0.616283,
                0.988484
            ],
            "min": [
                0.00927675,
                0.0569566
            ],
            "type": "VEC2"
        }
    },
    "animations": {},
    "asset": {
        "generator": "collada2gltf@cf6371beb0bdc18ba603378d5e40c966da53d385",
        "premultipliedAlpha": true,
        "profile": {
            "api": "WebGL",
            "version": "1.0.2"
        },
        "version": "1.0"
    },
    "bufferViews": {
        "bufferView_29": {
            "buffer": "avatar1-head",
            "byteLength": 9132,
            "byteOffset": 0,
            "target": 34963
        },
        "bufferView_30": {
            "buffer": "avatar1-head",
            "byteLength": 146112,
            "byteOffset": 9132,
            "target": 34962
        }
    },
    "buffers": {
        "avatar1-head": {
            "byteLength": 155244,
            "type": "arraybuffer",
            "uri": "avatar1-head.bin"
        }
    },
    "extensionsUsed": [
        "KHR_materials_common"
    ],
    "images": {
        "avatar1": {
            "name": "avatar1",
            "uri": "avatar1.jpg"
        }
    },
    "materials": {
        "matfinal-effect": {
            "extensions": {
                "KHR_materials_common": {
                    "doubleSided": false,
                    "jointCount": 0,
                    "technique": "LAMBERT",
                    "transparent": false,
                    "values": {
                        "ambient": [
                            0,
                            0,
                            0,
                            1
                        ],
                        "diffuse": "texture_avatar1",
                        "emission": [
                            0,
                            0,
                            0,
                            1
                        ]
                    }
                }
            },
            "name": "matfinal"
        }
    },
    "meshes": {
        "head-mesh": {
            "name": "head",
            "primitives": [
                {
                    "attributes": {
                        "NORMAL": "accessor_25",
                        "POSITION": "accessor_23",
                        "TEXCOORD_0": "accessor_27"
                    },
                    "indices": "accessor_21",
                    "material": "matfinal-effect",
                    "mode": 4
                }
            ]
        }
    },
    "nodes": {
        "head": {
            "children": [],
            "matrix": [
                1,
                0,
                0,
                0,
                0,
                1,
                0,
                0,
                0,
                0,
                1,
                0,
                0,
                0,
                0,
                1
            ],
            "meshes": [
                "head-mesh"
            ],
            "name": "head"
        },
        "node_1": {
            "children": [
                "head"
            ],
            "matrix": [
                1,
                0,
                0,
                0,
                0,
                0,
                -1,
                0,
                0,
                1,
                0,
                0,
                0,
                0,
                0,
                1
            ],
            "name": "Y_UP_Transform"
        }
    },
    "samplers": {
        "sampler_0": {
            "magFilter": 9729,
            "minFilter": 9729,
            "wrapS": 10497,
            "wrapT": 10497
        }
    },
    "scene": "defaultScene",
    "scenes": {
        "defaultScene": {
            "nodes": [
                "node_1"
            ]
        }
    },
    "skins": {},
    "textures": {
        "texture_avatar1": {
            "format": 6408,
            "internalFormat": 6408,
            "sampler": "sampler_0",
            "source": "avatar1",
            "target": 3553,
            "type": 5121
        }
    }
}