{
    "accessors": {
        "accessor_21": {
            "bufferView": "bufferView_29",
            "byteOffset": 0,
            "byteStride": 0,
            "componentType": 5123,
            "count": 1368,
            "type": "SCALAR"
        },
        "accessor_23": {
            "bufferView": "bufferView_30",
            "byteOffset": 0,
            "byteStride": 12,
            "componentType": 5126,
            "count": 1368,
            "max": [
                0.0597878,
                0.158229,
                0.152342
            ],
            "min": [
                -0.0833511,
                -0.139838,
                -0.102774
            ],
            "type": "VEC3"
        },
        "accessor_25": {
            "bufferView": "bufferView_30",
            "byteOffset": 16416,
            "byteStride": 12,
            "componentType": 5126,
            "count": 1368,
            "max": [
                0.99789,
                0.998195,
                0.986228
            ],
            "min": [
                -0.999809,
                -0.998835,
                -0.998643
            ],
            "type": "VEC3"
        },
        "accessor_27": {
            "bufferView": "bufferView_30",
            "byteOffset": 32832,
            "byteStride": 8,
            "componentType": 5126,
            "count": 1368,
            "max": [
                0.984414,
                0.980592
            ],
            "min": [
                0.697149,
                0.0156711
            ],
            "type": "VEC2"
        }
    },
    "animations": {},
    "asset": {
        "generator": "collada2gltf@cf6371beb0bdc18ba603378d5e40c966da53d385",
        "premultipliedAlpha": true,
        "profile": {
            "api": "WebGL",
            "version": "1.0.2"
        },
        "version": "1.0"
    },
    "bufferViews": {
        "bufferView_29": {
            "buffer": "avatar3-hand-right",
            "byteLength": 2736,
            "byteOffset": 0,
            "target": 34963
        },
        "bufferView_30": {
            "buffer": "avatar3-hand-right",
            "byteLength": 43776,
            "byteOffset": 2736,
            "target": 34962
        }
    },
    "buffers": {
        "avatar3-hand-right": {
            "byteLength": 46512,
            "type": "arraybuffer",
            "uri": "avatar3-hand-right.bin"
        }
    },
    "extensionsUsed": [
        "KHR_materials_common"
    ],
    "images": {
        "avatar3": {
            "name": "avatar3",
            "uri": "avatar3.jpg"
        },
        "avatar3spec": {
            "name": "avatar3spec",
            "uri": "avatar3spec.jpg"
        }
    },
    "materials": {
        "matfinal-effect": {
            "extensions": {
                "KHR_materials_common": {
                    "doubleSided": false,
                    "jointCount": 0,
                    "technique": "PHONG",
                    "transparent": false,
                    "values": {
                        "ambient": [
                            0,
                            0,
                            0,
                            1
                        ],
                        "diffuse": "texture_avatar3",
                        "emission": [
                            0,
                            0,
                            0,
                            1
                        ],
                        "shininess": 59,
                        "specular": "texture_avatar3spec"
                    }
                }
            },
            "name": "matfinal"
        }
    },
    "meshes": {
        "hand-mesh": {
            "name": "hand",
            "primitives": [
                {
                    "attributes": {
                        "NORMAL": "accessor_25",
                        "POSITION": "accessor_23",
                        "TEXCOORD_0": "accessor_27"
                    },
                    "indices": "accessor_21",
                    "material": "matfinal-effect",
                    "mode": 4
                }
            ]
        }
    },
    "nodes": {
        "hand-right": {
            "children": [],
            "matrix": [
                1,
                0,
                0,
                0,
                0,
                1,
                0,
                0,
                0,
                0,
                1,
                0,
                0,
                0,
                0,
                1
            ],
            "meshes": [
                "hand-mesh"
            ],
            "name": "hand-right"
        },
        "node_1": {
            "children": [
                "hand-right"
            ],
            "matrix": [
                1,
                0,
                0,
                0,
                0,
                0,
                -1,
                0,
                0,
                1,
                0,
                0,
                0,
                0,
                0,
                1
            ],
            "name": "Y_UP_Transform"
        }
    },
    "samplers": {
        "sampler_0": {
            "magFilter": 9729,
            "minFilter": 9729,
            "wrapS": 10497,
            "wrapT": 10497
        }
    },
    "scene": "defaultScene",
    "scenes": {
        "defaultScene": {
            "nodes": [
                "node_1"
            ]
        }
    },
    "skins": {},
    "textures": {
        "texture_avatar3": {
            "format": 6408,
            "internalFormat": 6408,
            "sampler": "sampler_0",
            "source": "avatar3",
            "target": 3553,
            "type": 5121
        },
        "texture_avatar3spec": {
            "format": 6408,
            "internalFormat": 6408,
            "sampler": "sampler_0",
            "source": "avatar3spec",
            "target": 3553,
            "type": 5121
        }
    }
}