# Blender v2.78 (sub 0) OBJ File: 'spotlight.blend'
# www.blender.org
o beam_Plane.001
v -1.332077 -3.115460 0.007941
v -0.000000 -0.015394 -0.000000
v -1.078177 -3.128207 -0.760965
v -0.420770 -3.140044 -1.233744
v 0.389037 -3.146450 -1.229810
v 1.041926 -3.144978 -0.750667
v 1.288514 -3.136191 0.020670
v 1.034614 -3.123444 0.789576
v 0.377208 -3.111607 1.262355
v -0.432600 -3.105201 1.258422
v -1.085488 -3.106673 0.779278
v -0.621452 -3.121082 0.011393
v 0.000000 -0.015394 0.000000
v -0.505252 -3.126915 -0.340505
v -0.204383 -3.132333 -0.556877
v 0.166234 -3.135265 -0.555077
v 0.465036 -3.134591 -0.335792
v 0.577889 -3.130569 0.017219
v 0.461689 -3.124736 0.369117
v 0.160820 -3.119318 0.585489
v -0.209797 -3.116386 0.583689
v -0.508598 -3.117061 0.364403
vt 0.9863 0.0150
vt 0.0059 0.0164
vt 0.9863 0.0164
vt 0.9863 0.0137
vt 0.0059 0.0150
vt 0.9863 0.0150
vt 0.9863 0.0124
vt 0.0059 0.0137
vt 0.9863 0.0137
vt 0.9863 0.0111
vt 0.0059 0.0124
vt 0.9863 0.0124
vt 0.9863 0.0098
vt 0.0059 0.0111
vt 0.9863 0.0111
vt 0.9863 0.0084
vt 0.0059 0.0098
vt 0.9863 0.0098
vt 0.9863 0.0071
vt 0.0059 0.0084
vt 0.9863 0.0084
vt 0.9863 0.0058
vt 0.0059 0.0071
vt 0.9863 0.0071
vt 0.9863 0.0045
vt 0.0059 0.0058
vt 0.9863 0.0058
vt 0.9863 0.0032
vt 0.0059 0.0045
vt 0.9863 0.0045
vt 0.9863 0.0150
vt 0.0059 0.0164
vt 0.9863 0.0164
vt 0.9863 0.0137
vt 0.0059 0.0150
vt 0.9863 0.0150
vt 0.9863 0.0124
vt 0.0059 0.0137
vt 0.9863 0.0137
vt 0.9863 0.0111
vt 0.0059 0.0124
vt 0.9863 0.0124
vt 0.9863 0.0098
vt 0.0059 0.0111
vt 0.9863 0.0111
vt 0.9863 0.0084
vt 0.0059 0.0098
vt 0.9863 0.0098
vt 0.9863 0.0071
vt 0.0059 0.0084
vt 0.9863 0.0084
vt 0.9863 0.0058
vt 0.0059 0.0071
vt 0.9863 0.0071
vt 0.9863 0.0045
vt 0.0059 0.0058
vt 0.9863 0.0058
vt 0.9863 0.0032
vt 0.0059 0.0045
vt 0.9863 0.0045
vn -0.9187 0.3947 -0.0113
vn 0.0071 0.9999 -0.0059
vn -0.7378 0.3902 -0.5507
vn -0.2760 0.3849 -0.8807
vn 0.2908 0.3809 -0.8777
vn 0.7489 0.3796 -0.5431
vn 0.9243 0.3816 -0.0023
vn 0.7480 0.3861 0.5398
vn 0.2850 0.3914 0.8749
vn -0.2871 0.3955 0.8724
vn -0.7473 0.3968 0.5330
vn -0.9805 0.1961 -0.0091
vn 0.0070 0.9999 -0.0049
vn -0.7885 0.1920 -0.5843
vn -0.2963 0.1867 -0.9366
vn 0.3085 0.1825 -0.9335
vn 0.7970 0.1809 -0.5763
vn 0.9832 0.1824 0.0004
vn 0.7946 0.1866 0.5777
vn 0.3015 0.1918 0.9340
vn -0.3073 0.1961 0.9312
vn -0.7973 0.1977 0.5703
s 1
f 1/1/1 2/2/2 3/3/3
f 3/4/3 2/5/2 4/6/4
f 4/7/4 2/8/2 5/9/5
f 5/10/5 2/11/2 6/12/6
f 6/13/6 2/14/2 7/15/7
f 7/16/7 2/17/2 8/18/8
f 8/19/8 2/20/2 9/21/9
f 9/22/9 2/23/2 10/24/10
f 10/25/10 2/26/2 11/27/11
f 11/28/11 2/29/2 1/30/1
f 12/31/12 13/32/13 14/33/14
f 14/34/14 13/35/13 15/36/15
f 15/37/15 13/38/13 16/39/16
f 16/40/16 13/41/13 17/42/17
f 17/43/17 13/44/13 18/45/18
f 18/46/18 13/47/13 19/48/19
f 19/49/19 13/50/13 20/51/20
f 20/52/20 13/53/13 21/54/21
f 21/55/21 13/56/13 22/57/22
f 22/58/22 13/59/13 12/60/12
