# Blender v2.78 (sub 0) OBJ File: '_tv.blend'
# www.blender.org
o tv
v -0.275000 -0.133440 0.114220
v -0.275000 0.185367 -0.030216
v -0.275000 -0.156315 0.063730
v -0.275000 0.162492 -0.080707
v 0.275000 -0.133440 0.114220
v 0.275000 0.185367 -0.030216
v 0.275000 -0.156315 0.063730
v 0.275000 0.162492 -0.080707
v -0.257619 0.147232 -0.073793
v -0.257619 -0.141054 0.056816
v 0.257619 -0.141054 0.056816
v 0.257619 0.147232 -0.073793
v -0.257619 0.153224 -0.060567
v -0.257619 -0.135062 0.070042
v 0.257619 -0.135062 0.070042
v 0.257619 0.153224 -0.060567
v 0.000000 -0.033080 0.028428
v 0.000000 2.356751 0.028428
v 0.017321 -0.033080 0.038428
v 0.017321 2.356751 0.038428
v 0.017321 -0.033080 0.058428
v 0.017321 2.356751 0.058428
v -0.000000 -0.033080 0.068428
v -0.000000 2.356751 0.068428
v -0.017321 -0.033080 0.058428
v -0.017321 2.356751 0.058428
v -0.017321 -0.033080 0.038428
v -0.017321 2.356751 0.038428
vt 0.4660 0.4359
vt 0.7541 0.5403
vt 0.4660 0.5403
vt 0.7541 0.4359
vt 0.7876 0.0181
vt 0.4139 0.1992
vt 0.4139 0.0176
vt 0.8434 0.7292
vt 0.8237 0.2665
vt 0.8434 0.2665
vt 0.4139 0.7963
vt 0.7876 0.9775
vt 0.4139 0.9775
vt 0.8237 0.7292
vt 0.7876 0.2665
vt 0.3610 0.7292
vt 0.2250 0.2665
vt 0.3610 0.2665
vt 0.9795 0.7292
vt 0.7876 0.1997
vt 0.4139 0.2222
vt 0.7876 0.7963
vt 0.4139 0.7735
vt 0.7876 0.7735
vt 0.3807 0.7292
vt 0.4139 0.7292
vt 0.4139 0.2665
vt 0.7876 0.2222
vt 0.7876 0.7292
vt 0.3807 0.2665
vt 0.1130 0.9856
vt 0.0821 0.0144
vt 0.1130 0.0144
vt 0.0821 0.9856
vt 0.0463 0.0144
vt 0.0463 0.9856
vt 0.0154 0.0144
vt 0.2069 0.9856
vt 0.1761 0.0144
vt 0.2069 0.0144
vt 0.1760 0.9856
vt 0.1438 0.0144
vt 0.1438 0.9856
vt 0.2250 0.7292
vt 0.9795 0.2665
vt 0.0155 0.9856
vn 0.0000 0.4127 0.9109
vn -1.0000 0.0000 0.0000
vn 0.0000 -0.4127 -0.9109
vn 1.0000 0.0000 0.0000
vn 0.0000 -0.9109 0.4127
vn 0.0000 0.9109 -0.4127
vn 0.0000 0.0000 -1.0000
vn 0.8660 0.0000 -0.5000
vn 0.8660 0.0000 0.5000
vn 0.0000 0.0000 1.0000
vn -0.8660 0.0000 0.5000
vn -0.8660 0.0000 -0.5000
s 1
f 5/1/1 2/2/1 1/3/1
f 5/1/1 6/4/1 2/2/1
f 2/5/2 3/6/2 1/7/2
f 8/8/3 9/9/3 4/10/3
f 7/11/4 6/12/4 5/13/4
f 12/14/5 13/15/5 9/9/5
f 7/16/5 1/17/5 3/18/5
f 4/10/6 6/19/6 8/8/6
f 4/20/3 10/21/3 3/6/3
f 8/22/3 11/23/3 12/24/3
f 3/18/3 11/25/3 7/16/3
f 13/15/3 15/26/3 14/27/3
f 9/28/4 14/27/4 10/21/4
f 12/24/2 15/26/2 16/29/2
f 10/30/6 15/26/6 11/25/6
f 18/31/7 19/32/8 17/33/7
f 20/34/8 21/35/9 19/32/8
f 22/36/9 23/37/10 21/35/9
f 24/38/10 25/39/11 23/40/10
f 26/41/11 27/42/12 25/39/11
f 28/43/12 17/33/7 27/42/12
f 2/5/2 4/20/2 3/6/2
f 8/8/3 12/14/3 9/9/3
f 7/11/4 8/22/4 6/12/4
f 12/14/5 16/29/5 13/15/5
f 7/16/5 5/44/5 1/17/5
f 4/10/6 2/45/6 6/19/6
f 4/20/3 9/28/3 10/21/3
f 8/22/3 7/11/3 11/23/3
f 3/18/3 10/30/3 11/25/3
f 13/15/3 16/29/3 15/26/3
f 9/28/4 13/15/4 14/27/4
f 12/24/2 11/23/2 15/26/2
f 10/30/6 14/27/6 15/26/6
f 18/31/7 20/34/8 19/32/8
f 20/34/8 22/36/9 21/35/9
f 22/36/9 24/46/10 23/37/10
f 24/38/10 26/41/11 25/39/11
f 26/41/11 28/43/12 27/42/12
f 28/43/12 18/31/7 17/33/7
